<svg width="40" height="39" viewBox="0 0 40 39" fill="none" xmlns="http://www.w3.org/2000/svg">
<path d="M19.3511 4C18.875 4 18.4622 4.16159 18.1138 4.48476L8.9609 12.9737H1.76C1.28282 12.9737 0.871122 13.1353 0.522673 13.4585C0.174224 13.7817 0 14.1645 0 14.6061V24.3939C0 24.8355 0.174224 25.2183 0.522673 25.5415C0.871122 25.8647 1.28393 26.0263 1.76 26.0263H8.9609L18.1138 34.5152C18.4622 34.8384 18.8739 35 19.3511 35C19.8283 35 20.24 34.8384 20.5884 34.5152C20.9369 34.1921 21.1111 33.8102 21.1111 33.3677V5.63234C21.1111 5.1908 20.9369 4.80793 20.5895 4.48476C20.2422 4.16159 19.8294 4 19.3522 4H19.3511Z" fill="#B3B3B3"/>
<path d="M29.5979 23.1322C30.3389 22.0151 30.7094 20.8082 30.7094 19.5103C30.7094 18.2125 30.3389 17.0014 29.5979 15.8751C28.8569 14.7487 27.8774 13.9551 26.6561 13.4943C26.4819 13.4095 26.2634 13.3661 26.0027 13.3661C25.5499 13.3661 25.1572 13.5242 24.8258 13.8394C24.4943 14.1566 24.3286 14.5431 24.3286 15.004C24.3286 15.3625 24.4331 15.6653 24.6432 15.9123C24.8532 16.1592 25.1044 16.3731 25.4011 16.5519C25.6966 16.7307 25.9932 16.927 26.2898 17.1409C26.5864 17.3548 26.8387 17.6565 27.0477 18.0492C27.2567 18.4419 27.3612 18.9286 27.3612 19.5083C27.3612 20.088 27.2567 20.5747 27.0477 20.9673C26.8387 21.36 26.5864 21.6628 26.2898 21.8756C25.9932 22.0885 25.6966 22.2859 25.4011 22.4646C25.1044 22.6434 24.8522 22.8573 24.6432 23.1043C24.4342 23.3512 24.3286 23.655 24.3286 24.0126C24.3286 24.4734 24.4954 24.8609 24.8258 25.1771C25.1572 25.4913 25.5488 25.6514 26.0027 25.6514C26.2634 25.6514 26.4819 25.6091 26.6561 25.5233C27.8763 25.0449 28.8569 24.2471 29.5979 23.1291V23.1322Z" fill="#B3B3B3"/>
<path d="M35.7563 26.8582C37.252 24.6112 37.9999 22.1571 37.9999 19.499C37.9999 16.8419 37.252 14.3899 35.7563 12.1397C34.2605 9.89271 32.2811 8.25452 29.819 7.23039C29.591 7.14417 29.362 7.10001 29.1329 7.10001C28.6759 7.10001 28.2796 7.26509 27.9451 7.59525C27.6105 7.92541 27.4443 8.31551 27.4443 8.76764C27.4443 9.44479 27.7874 9.95685 28.4735 10.3049C29.4579 10.8085 30.1269 11.1902 30.4785 11.451C31.7803 12.3889 32.7967 13.5645 33.5265 14.9797C34.2562 16.395 34.6216 17.9007 34.6216 19.5C34.6216 21.0972 34.2562 22.6039 33.5265 24.0203C32.7967 25.4356 31.7803 26.6111 30.4785 27.549C30.1269 27.8098 29.4579 28.1915 28.4735 28.6951C27.7874 29.0432 27.4443 29.5542 27.4443 30.2324C27.4443 30.6835 27.6116 31.0746 27.9451 31.4048C28.2785 31.7349 28.6833 31.9 29.1585 31.9C29.3694 31.9 29.59 31.8558 29.818 31.7696C32.28 30.7444 34.2605 29.1084 35.7552 26.8593L35.7563 26.8582Z" fill="#B3B3B3"/>
<line x1="2.2573" y1="37.2075" x2="38.2573" y2="2.20751" stroke="#B3B3B3" stroke-width="5"/>
</svg>
